<?xml version="1.0" encoding="UTF-8" standalone="no"?>
<!-- Created with Inkscape (http://www.inkscape.org/) -->

<svg
   width="16"
   height="16"
   viewBox="0 0 4.2333335 4.2333333"
   version="1.1"
   id="svg5"
   sodipodi:docname="favicon.svg"
   inkscape:version="1.1.2 (0a00cf5339, 2022-02-04)"
   xmlns:inkscape="http://www.inkscape.org/namespaces/inkscape"
   xmlns:sodipodi="http://sodipodi.sourceforge.net/DTD/sodipodi-0.dtd"
   xmlns="http://www.w3.org/2000/svg"
   xmlns:svg="http://www.w3.org/2000/svg">
  <sodipodi:namedview
     id="namedview7"
     pagecolor="#ffffff"
     bordercolor="#666666"
     borderopacity="1.0"
     inkscape:pageshadow="2"
     inkscape:pageopacity="0.0"
     inkscape:pagecheckerboard="0"
     inkscape:document-units="mm"
     showgrid="false"
     fit-margin-top="0"
     fit-margin-left="0"
     fit-margin-right="0"
     fit-margin-bottom="0"
     units="px"
     inkscape:zoom="32"
     inkscape:cx="-1.28125"
     inkscape:cy="8.734375"
     inkscape:window-width="2560"
     inkscape:window-height="1034"
     inkscape:window-x="-4"
     inkscape:window-y="-4"
     inkscape:window-maximized="1"
     inkscape:current-layer="layer1"
     inkscape:snap-global="false" />
  <defs
     id="defs2" />
  <g
     inkscape:label="Layer 1"
     inkscape:groupmode="layer"
     id="layer1"
     transform="translate(-224.26647,-231.01471)">
    <path
       id="rect1346"
       style="fill:#ffffff;stroke-width:0.610723;stroke-linecap:round"
       d="m 225.56266,234.696 0.0755,-0.49979 0.19668,-0.43345 0.0631,-0.71968 0.20446,-0.53489 -0.25428,-0.0277 -0.0563,-0.0611 0.16296,-0.18723 -0.19699,-0.60482 -0.11924,-0.22745 0.0273,-0.009 0.13008,0.049 0.12365,0.0897 -0.003,-0.14064 0.0284,-0.008 0.0932,0.0297 0.18253,0.0982 0.0718,-0.0286 5e-4,-0.17399 -0.10559,-0.10893 0.0171,-0.0124 0.13012,-0.005 -0.04,-0.12336 0.0263,-0.0252 0.0518,-0.007 0.0633,0.0216 -8.7e-4,0.11787 0.0396,0.0214 0.0674,0.003 0.0213,0.0415 -0.1568,0.162 0.0488,0.11701 0.15543,-0.059 0.071,-0.0417 0.0843,-0.0246 0.0727,0.01 -0.009,0.14595 0.13686,-0.11181 0.0997,-0.0289 0.0595,0.0287 -0.29051,0.67696 -0.002,0.39719 -0.072,0.0714 0.20504,1.39215 0.1765,0.16543 0.0304,0.65704 0.12729,0.36617 -2.07838,-0.0652 z"
       sodipodi:nodetypes="ccccccccccccccccccccccccccccccccccccccccccccccccc" />
    <path
       style="fill:#000000;stroke-width:0.00493044"
       d="m 225.71117,235.24717 c -0.16081,-0.0289 -0.42764,0.0422 -0.48868,-0.15836 -0.0279,-0.15355 0.1128,-0.24192 0.1383,-0.38277 0.15587,-0.0876 0.31156,-0.25876 0.11841,-0.4089 -0.10129,-0.18985 0.26928,-0.24476 0.18961,-0.35543 -0.13045,-0.22055 -0.0547,-0.49361 0.0444,-0.71122 0.0883,-0.22647 0.20136,-0.44755 0.25135,-0.6859 -0.14797,0.0463 -0.32915,-0.13056 -0.13783,-0.22021 0.10611,-0.076 0.0543,-0.26134 0.0143,-0.38817 -0.0614,-0.1772 -0.15177,-0.34175 -0.24276,-0.50488 0.0581,-0.14835 0.25581,0.0572 0.30111,0.0714 -0.0989,-0.23249 0.2246,-0.0756 0.30713,-0.0114 0.0726,0.0345 0.13684,-0.16049 -0.001,-0.0738 -0.0398,-0.005 -0.0915,-0.29733 0.0345,-0.22984 -0.15993,0.009 0.12565,0.0671 0.049,-0.0564 -0.0821,-0.17741 0.26739,-0.13945 0.15764,0.0264 0.0155,0.0611 0.1757,-0.0267 0.11959,0.11405 0.0233,0.11595 -0.0162,0.18366 -0.13704,0.12678 0.0423,0.22703 0.24767,-0.069 0.38243,-0.0226 0.1278,-0.003 -0.0538,0.25017 0.0901,0.0973 0.0796,-0.13935 0.36906,-0.10909 0.20385,0.0735 -0.10709,0.20541 -0.20894,0.41843 -0.2466,0.64908 -0.007,0.11916 0.16106,0.14405 0.18161,0.26851 -0.07,0.12756 -0.32606,0.006 -0.22108,0.20098 0.0713,0.31462 0.24148,0.59626 0.32205,0.90729 0.029,0.14454 0.017,0.31459 -0.10044,0.41855 0.0577,0.0906 0.19092,0.0805 0.23099,0.20573 0.0156,0.14115 -0.20246,0.32674 0.0211,0.41763 0.14997,0.0432 0.10312,0.21773 0.20151,0.29009 0.16023,0.19821 -0.0777,0.37601 -0.27605,0.33621 -0.50208,0.0115 -1.0048,0.006 -1.50691,0.006 z m 1.11478,-0.27091 c 0.0843,-0.003 0.20524,-0.0691 0.0458,-0.0507 -0.44377,-10e-4 -0.88765,-0.003 -1.33137,0.004 -0.0827,0.0818 0.26543,0.0446 0.34194,0.057 0.29654,-0.002 0.59409,0.006 0.89018,-0.001 0.0178,-0.003 0.0356,-0.006 0.0534,-0.009 z m 0.30272,0.008 c -0.0655,-0.017 -0.2624,-0.006 -0.31301,0.003 0.1043,0.001 0.2088,0.001 0.31301,-0.003 z m -0.0666,-0.11422 c 0.0621,-0.0812 -0.24474,-0.0514 -0.32803,-0.0596 -0.363,0.008 -0.72966,-0.0239 -1.08966,0.0338 -0.13328,0.078 0.22241,0.0228 0.29359,0.0399 0.36584,-0.003 0.7337,0.004 1.09866,-0.005 0.008,-0.003 0.017,-0.006 0.0255,-0.009 z m -0.40182,-0.68018 c 0.11112,-0.0159 0.29123,0.0104 0.35816,-0.0716 -0.44022,-0.004 -0.88095,-0.001 -1.32134,-0.001 0.0127,0.0902 0.28774,0.0689 0.40756,0.0761 0.1852,3.7e-4 0.37048,10e-4 0.55562,-0.004 z m 0.0296,-0.12051 c 0.0668,-0.008 0.2723,-0.0149 0.10222,-0.0199 -0.35508,-0.0183 -0.71112,-0.014 -1.06611,0.004 0.32034,0.0304 0.64266,0.0253 0.96389,0.0157 z m -0.19423,-0.21491 c 0.0617,-0.007 0.37357,-0.0276 0.22031,-0.0834 -0.25559,0.0325 -0.51233,0.0548 -0.76977,0.0663 0.18091,0.0253 0.36661,0.0245 0.54946,0.0171 z m -0.0893,-0.15325 c 0.18161,0.003 0.35076,-0.1065 0.23403,-0.29304 -0.0578,-0.27968 -0.0987,-0.56305 -0.12062,-0.84782 -0.11908,-0.001 -0.23816,-0.002 -0.35724,-0.003 -0.0641,0.3139 -0.1848,0.61211 -0.27046,0.91962 -0.023,0.20413 0.23832,0.23304 0.38886,0.23142 0.0419,-6e-5 0.0841,-0.003 0.12543,-0.007 z m 0.21236,-1.2423 c 0.0859,-0.001 0.27775,-0.0135 0.0804,-0.0211 -0.28372,-0.0239 -0.57083,-0.0225 -0.85408,0.007 0.25463,0.0307 0.51711,0.0178 0.77365,0.0145 z m -0.0689,-0.069 c 0.0615,0.003 0.30244,-0.0364 0.11954,-0.0374 -0.25352,-0.003 -0.50742,-0.009 -0.76074,0.004 0.15892,0.0661 0.33862,0.0275 0.50674,0.0364 0.0448,-7.3e-4 0.09,-0.001 0.13446,-0.003 z m 0.0168,-0.12544 c -0.003,-0.0575 -0.10783,-0.0132 -0.15441,-0.0271 -0.13484,0.004 -0.27714,-0.01 -0.40581,0.0104 -0.019,0.0758 0.0983,0.0238 0.14292,0.0395 0.13869,0.001 0.2774,7.3e-4 0.41608,0.003 l 0.001,-0.0259 z m 0.25926,-0.0481 c -0.18326,-0.0198 -0.40239,-0.004 -0.59863,-0.009 -0.0608,-0.005 -0.34741,0.007 -0.14121,0.0125 0.2465,7.3e-4 0.49375,0.003 0.73984,-0.004 z m -0.52731,-0.11833 c -0.0178,-0.15102 0.008,-0.32025 -0.065,-0.45684 -0.0719,-0.0427 -0.26988,-0.13025 -0.17056,0.0314 0.0552,0.1644 0.0704,0.33773 0.0763,0.50995 0.0541,-0.011 0.19421,0.0501 0.16041,-0.0524 -3.6e-4,-0.0107 -7.3e-4,-0.0214 -0.001,-0.0322 z m 0.16323,-0.53581 c 0.11759,-0.0152 0.20145,-0.11454 0.29603,-0.15624 0.18267,-0.0181 -0.10114,-0.0224 -0.13344,0.0493 -0.14228,0.0882 -0.32675,0.12567 -0.4765,0.0318 -0.0648,-0.0299 -0.18919,-0.12736 -0.22867,-0.0878 0.15995,0.0517 0.2922,0.2024 0.47491,0.17428 0.0228,-0.002 0.0457,-0.005 0.0677,-0.0113 z m 0.45595,-0.063 c 0.036,-0.0431 0.25397,-0.12783 0.0894,-0.0747 -0.053,0.0121 -0.22616,0.18512 -0.0894,0.0746 z m -1.04567,0.0343 c -0.022,-0.0782 -0.24434,-0.15867 -0.21853,-0.12443 0.0802,0.005 0.17573,0.10413 0.21853,0.12443 z m 0.54416,-0.0259 c -0.0594,-0.019 -0.21099,-2e-4 -0.0591,0.004 l 0.0379,-10e-4 z m 0.13389,-0.30836 c -0.0831,-0.0391 -0.15157,0.0395 0,0 z m -0.12159,-0.13979 c 0.0303,-0.0514 -0.24662,0.001 -0.0653,0.004 0.0218,-3.6e-4 0.0437,-3.6e-4 0.0653,-0.004 z"
       id="path854" />
  </g>
</svg>
